<svg xmlns="http://www.w3.org/2000/svg" viewBox="0 0 200 200" role="img" aria-label="Hicran K. demo fotoğrafı">
  <defs>
    <linearGradient id="bg" x1="0" x2="1" y1="0" y2="1">
      <stop offset="0%" stop-color="#0F2A4A"/>
      <stop offset="100%" stop-color="#1D4ED8"/>
    </linearGradient>
    <linearGradient id="shirt" x1="0" x2="1" y1="0" y2="1">
      <stop offset="0%" stop-color="#1D4ED8"/>
      <stop offset="100%" stop-color="#0F2A4A"/>
    </linearGradient>
  </defs>
  <rect width="200" height="200" rx="24" fill="url(#bg)"/>
  <circle cx="100" cy="82" r="34" fill="#F4C7A1"/>
  <path d="M66 72c5-24 28-38 54-31 14 4 23 13 28 24-4 4-9 7-14 8-10-13-29-17-46-10-10 4-18 10-22 18-2-4-1-6 0-9z" fill="#17324f"/>
  <path d="M56 166c9-24 27-37 44-37s35 13 44 37" fill="url(#shirt)"/>
  <path d="M72 99c8 7 40 7 56 0 2 16-1 28-6 38-8 6-18 9-22 9-5 0-15-3-22-9-6-10-8-22-6-38z" fill="#f6fbff" opacity=".95"/>
  <circle cx="87" cy="82" r="3" fill="#2b0a10" opacity=".55"/>
  <circle cx="113" cy="82" r="3" fill="#2b0a10" opacity=".55"/>
  <path d="M88 95c7 5 17 5 24 0" stroke="#b66c55" stroke-width="3" stroke-linecap="round" fill="none"/>
</svg>