<svg xmlns="http://www.w3.org/2000/svg" viewBox="0 0 200 200" role="img" aria-label="Aslı Nur B. demo fotoğrafı">
  <defs>
    <linearGradient id="bg" x1="0" x2="1" y1="0" y2="1">
      <stop offset="0%" stop-color="#D97706"/>
      <stop offset="100%" stop-color="#F59E0B"/>
    </linearGradient>
    <linearGradient id="shirt" x1="0" x2="1" y1="0" y2="1">
      <stop offset="0%" stop-color="#F59E0B"/>
      <stop offset="100%" stop-color="#7C2D12"/>
    </linearGradient>
  </defs>
  <rect width="200" height="200" rx="24" fill="url(#bg)"/>
  <circle cx="100" cy="82" r="34" fill="#F2C8A7"/>
  <path d="M63 77c4-22 23-36 46-36 15 0 28 7 36 18 0 6-4 12-10 14-9-10-22-15-35-13-12 2-22 10-28 20-5-1-8-2-9-3z" fill="#2d3748"/>
  <path d="M54 166c10-23 26-37 46-37 19 0 35 14 45 37" fill="url(#shirt)"/>
  <path d="M69 99c9 7 43 7 61 0 2 15-1 28-6 38-9 7-20 10-25 10-4 0-15-3-24-10-5-10-8-23-6-38z" fill="#fffaf2" opacity=".96"/>
  <circle cx="87" cy="82" r="3" fill="#2b0a10" opacity=".55"/>
  <circle cx="113" cy="82" r="3" fill="#2b0a10" opacity=".55"/>
  <path d="M89 96c6 4 16 4 22 0" stroke="#b66c55" stroke-width="3" stroke-linecap="round" fill="none"/>
</svg>